<svg width="116" height="30" viewBox="0 0 116 30" fill="none" xmlns="http://www.w3.org/2000/svg">
<path d="M26.424 19.528V7.432C26.424 7.08 26.288 6.848 26.016 6.736C25.744 6.624 25.4 6.568 24.984 6.568H24.744V4.96H32.736V6.568H32.496C32.08 6.568 31.736 6.624 31.464 6.736C31.192 6.848 31.056 7.08 31.056 7.432V19.528C31.056 19.88 31.192 20.112 31.464 20.224C31.736 20.336 32.08 20.392 32.496 20.392H32.736V22H24.744V20.392H24.984C25.4 20.392 25.744 20.336 26.016 20.224C26.288 20.112 26.424 19.88 26.424 19.528Z" fill="#CEA971"/>
<path d="M34.1156 22V20.488H34.1396C34.3796 20.488 34.5956 20.472 34.7876 20.44C34.9796 20.392 35.1316 20.32 35.2436 20.224C35.3556 20.112 35.4116 19.96 35.4116 19.768V12.136C35.4116 11.96 35.3716 11.832 35.2916 11.752C35.2116 11.656 35.0916 11.576 34.9316 11.512C34.7716 11.448 34.5636 11.384 34.3076 11.32L34.1156 11.272V9.712H39.4916V12.376H39.7796V20.296C39.7796 20.344 39.8356 20.384 39.9476 20.416C40.0756 20.448 40.2196 20.472 40.3796 20.488C40.5556 20.488 40.7156 20.488 40.8596 20.488H40.9316V22H34.1156ZM49.2116 22H42.3956V20.488H42.4196C42.5636 20.488 42.7236 20.488 42.8996 20.488C43.0756 20.472 43.2276 20.448 43.3556 20.416C43.4836 20.368 43.5476 20.328 43.5476 20.296V13.6C43.5476 13.2 43.4996 12.872 43.4036 12.616C43.3236 12.36 43.1876 12.168 42.9956 12.04C42.8036 11.912 42.5476 11.848 42.2276 11.848C41.8436 11.848 41.4756 11.96 41.1236 12.184C40.7876 12.392 40.4676 12.712 40.1636 13.144C39.8596 13.56 39.5636 14.088 39.2756 14.728V12.448C39.5796 11.824 39.9476 11.296 40.3796 10.864C40.8276 10.416 41.3396 10.072 41.9156 9.832C42.5076 9.592 43.1556 9.472 43.8596 9.472C44.6756 9.472 45.3876 9.632 45.9956 9.952C46.6036 10.256 47.0756 10.712 47.4116 11.32C47.7476 11.928 47.9156 12.696 47.9156 13.624V19.768C47.9156 19.96 47.9716 20.112 48.0836 20.224C48.1956 20.32 48.3396 20.392 48.5156 20.44C48.7076 20.472 48.9236 20.488 49.1636 20.488H49.2116V22Z" fill="#CEA971"/>
<path d="M65.6286 22H58.1406V20.488H58.2126C58.3566 20.488 58.5086 20.488 58.6686 20.488C58.8446 20.472 58.9886 20.448 59.1006 20.416C59.2286 20.368 59.2926 20.32 59.2926 20.272L56.2926 15.856V15.328L60.4206 11.656C60.4206 11.528 60.3166 11.44 60.1086 11.392C59.9166 11.328 59.6846 11.288 59.4126 11.272C59.1566 11.24 58.9166 11.224 58.6926 11.224H58.5486V9.712H64.7166V11.224H64.6686C64.3646 11.224 64.0686 11.264 63.7806 11.344C63.5086 11.424 63.2446 11.544 62.9886 11.704C62.7486 11.848 62.5086 12.024 62.2686 12.232L58.5726 15.52L59.4606 13.624L63.7566 19.696C63.9166 19.888 64.0926 20.048 64.2846 20.176C64.4766 20.288 64.6846 20.368 64.9086 20.416C65.1326 20.464 65.3566 20.488 65.5806 20.488H65.6286V22ZM55.7646 4.36V20.272C55.7646 20.32 55.8206 20.368 55.9326 20.416C56.0606 20.448 56.2046 20.472 56.3646 20.488C56.5406 20.488 56.7006 20.488 56.8446 20.488H56.9166V22H50.0766V20.488H50.1006C50.4686 20.488 50.7726 20.44 51.0126 20.344C51.2526 20.248 51.3726 20.056 51.3726 19.768V6.76C51.3726 6.6 51.3326 6.472 51.2526 6.376C51.1886 6.28 51.0766 6.2 50.9166 6.136C50.7566 6.072 50.5406 6.016 50.2686 5.968L50.0766 5.92V4.36H55.7646Z" fill="#CEA971"/>
<path d="M76.2319 13.312L73.9759 22H69.7999L67.1359 11.992C67.0879 11.784 66.9999 11.624 66.8719 11.512C66.7599 11.4 66.6239 11.32 66.4639 11.272C66.3039 11.224 66.1039 11.2 65.8639 11.2H65.8399V9.712H72.9199V11.2H72.8959C72.6399 11.2 72.3919 11.208 72.1519 11.224C71.9279 11.24 71.7359 11.264 71.5759 11.296C71.4319 11.312 71.3599 11.352 71.3599 11.416L73.3519 19.648L72.6559 20.608L75.4159 9.712H78.8959L81.4639 19.624L80.6719 20.536L82.9279 11.704C82.9279 11.608 82.8559 11.52 82.7119 11.44C82.5839 11.36 82.4079 11.304 82.1839 11.272C81.9759 11.224 81.7519 11.2 81.5119 11.2H81.4639V9.712H86.0959V11.2H86.0719C85.8799 11.2 85.6959 11.24 85.5199 11.32C85.3439 11.384 85.1919 11.488 85.0639 11.632C84.9359 11.776 84.8319 11.976 84.7519 12.232L82.2079 22H78.0079L75.8239 13.12L76.2319 13.312Z" fill="#CEA971"/>
<path d="M90.9647 15.904C90.9647 16.608 91.0287 17.232 91.1567 17.776C91.3007 18.32 91.5007 18.784 91.7567 19.168C92.0127 19.536 92.3487 19.816 92.7647 20.008C93.1807 20.184 93.6607 20.272 94.2047 20.272C94.7807 20.272 95.2687 20.168 95.6687 19.96C96.0847 19.736 96.4367 19.456 96.7247 19.12C97.0287 18.768 97.2767 18.416 97.4687 18.064L99.0287 19.144C98.7087 19.736 98.3007 20.272 97.8047 20.752C97.3087 21.216 96.7087 21.584 96.0047 21.856C95.3167 22.112 94.4927 22.24 93.5327 22.24C92.1407 22.24 90.9167 21.984 89.8607 21.472C88.8207 20.96 88.0127 20.232 87.4367 19.288C86.8607 18.328 86.5727 17.192 86.5727 15.88C86.5727 14.6 86.8527 13.48 87.4127 12.52C87.9887 11.56 88.7647 10.816 89.7407 10.288C90.7327 9.744 91.8527 9.472 93.1007 9.472C94.1087 9.472 94.9887 9.624 95.7407 9.928C96.5087 10.216 97.1487 10.656 97.6607 11.248C98.1887 11.84 98.5807 12.584 98.8367 13.48C99.1087 14.36 99.2447 15.392 99.2447 16.576H90.4847V14.848H95.6927L95.1647 15.568C95.1487 14.752 95.1007 14.08 95.0207 13.552C94.9407 13.008 94.8207 12.576 94.6607 12.256C94.5007 11.936 94.3007 11.712 94.0607 11.584C93.8207 11.44 93.5327 11.368 93.1967 11.368C92.8607 11.368 92.5567 11.456 92.2847 11.632C92.0287 11.808 91.7967 12.08 91.5887 12.448C91.3967 12.816 91.2447 13.288 91.1327 13.864C91.0207 14.424 90.9647 15.104 90.9647 15.904Z" fill="#CEA971"/>
<path d="M106.037 4.36V19.768C106.037 20.056 106.157 20.248 106.397 20.344C106.637 20.44 106.933 20.488 107.285 20.488H107.333V22H100.349V20.488H100.373C100.757 20.488 101.061 20.44 101.285 20.344C101.525 20.248 101.645 20.056 101.645 19.768V6.76C101.645 6.6 101.605 6.472 101.525 6.376C101.461 6.28 101.349 6.2 101.189 6.136C101.029 6.072 100.813 6.016 100.541 5.968L100.349 5.92V4.36H106.037Z" fill="#CEA971"/>
<path d="M113.912 4.36V19.768C113.912 20.056 114.032 20.248 114.272 20.344C114.512 20.44 114.808 20.488 115.16 20.488H115.208V22H108.224V20.488H108.248C108.632 20.488 108.936 20.44 109.16 20.344C109.4 20.248 109.52 20.056 109.52 19.768V6.76C109.52 6.6 109.48 6.472 109.4 6.376C109.336 6.28 109.224 6.2 109.064 6.136C108.904 6.072 108.688 6.016 108.416 5.968L108.224 5.92V4.36H113.912Z" fill="#CEA971"/>
<path d="M15.9099 17.0416C16.4748 16.2396 16.6569 15.228 16.4061 14.2795L13.8436 6.33908H2.95789L0.394416 14.2795C0.143576 15.228 0.325744 16.2396 0.890647 17.0416L7.02008 25.7337V27.1216C6.64748 27.4164 6.40942 27.8724 6.40942 28.3851C6.40942 29.2768 7.13176 30.0001 8.02444 30.0001V15.4843C7.41653 15.3186 6.96975 14.7638 6.96975 14.1037C6.96975 13.3136 7.60971 12.6727 8.40072 12.6727C9.1908 12.6727 9.8317 13.3136 9.8317 14.1037C9.8317 14.7638 9.38399 15.3186 8.77701 15.4834V30C9.66875 30 10.392 29.2767 10.392 28.385C10.392 27.8723 10.1531 27.4164 9.78043 27.1215V25.7336L15.9099 17.0416Z" fill="#CEA971"/>
<path d="M14.1969 0H2.60451V5.159H14.1969V0Z" fill="#CEA971"/>
</svg>
